<svg width="450" height="450" viewBox="0 0 450 450" fill="none" xmlns="http://www.w3.org/2000/svg">
<rect width="450" height="450" rx="30" fill="#4369D9"/>
<path d="M127.5 267.672L127.5 224.922L149.578 225.203L149.578 267.672C149.578 282.297 152.625 294.484 158.719 304.234C164.906 313.984 173.531 321.297 184.594 326.172C195.75 331.141 208.781 333.625 223.687 333.625L236.203 333.625C247.922 333.625 258.328 332.219 267.422 329.406C276.609 326.594 284.344 322.469 290.625 317.031C297 311.594 301.828 304.937 305.109 297.062C308.391 289.281 310.031 280.328 310.031 270.203L310.031 224.078L332.25 224.078L332.25 270.203C332.25 283.609 330 295.844 325.5 306.906C321.094 317.969 314.672 327.484 306.234 335.453C297.891 343.516 287.766 349.703 275.859 354.016C264.047 358.328 250.734 360.484 235.922 360.484L223.687 360.484C208.875 360.484 195.516 358.328 183.609 354.016C171.797 349.703 161.719 343.469 153.375 335.312C145.031 327.25 138.609 317.5 134.109 306.062C129.703 294.719 127.5 281.922 127.5 267.672ZM332.25 239.406L127.5 239.406L127.5 212.266L332.25 212.266L332.25 239.406Z" fill="#FFFCFC"/>
<path d="M332.25 235.734L332.25 167.953C332.25 152.578 329.906 139.594 325.219 129C320.531 118.312 313.594 110.203 304.406 104.672C295.313 99.0469 284.109 96.2344 270.797 96.2344C261.422 96.2344 252.844 98.1562 245.063 102C237.375 105.75 230.813 111.187 225.375 118.312C220.031 125.344 216.047 133.781 213.422 143.625L210.469 151.219L210.469 214.922L232.547 215.203L232.547 167.109C232.547 157.359 234.234 149.25 237.609 142.781C241.078 136.312 245.719 131.437 251.531 128.156C257.344 124.875 263.766 123.234 270.797 123.234C278.672 123.234 285.563 124.781 291.469 127.875C297.375 130.969 301.922 135.844 305.109 142.5C308.391 149.062 310.031 157.547 310.031 167.953L310.031 208.594L127.5 208.594L127.5 235.734L332.25 235.734ZM127.5 116.062L220.313 165.844L220.453 137.578L129.188 87.0937L127.5 87.0937L127.5 116.062Z" fill="#FFFCFC"/>
<circle cx="272" cy="174" r="19" fill="white"/>
<path d="M207 287H258.5L286.397 360.818C288.621 366.706 284.271 373 277.978 373H180.261C173.644 373 169.29 366.1 172.137 360.127L207 287Z" fill="white"/>
</svg>
